<svg width="16" height="17" viewBox="0 0 16 17" fill="none" xmlns="http://www.w3.org/2000/svg">
<g filter="url(#filter0_dd_21912_447)">
<path d="M15.7 14.6889L12.6 11.5889C13.5 10.3889 14 8.98892 14 7.38892C14 3.48892 10.9 0.388916 7 0.388916C3.1 0.388916 0 3.48892 0 7.38892C0 11.2889 3.1 14.3889 7 14.3889C8.6 14.3889 10 13.8889 11.2 12.9889L14.3 16.0889C14.5 16.2889 14.7 16.3889 15 16.3889C15.6 16.3889 16 15.9889 16 15.3889C16 15.1889 15.9 14.8889 15.7 14.6889ZM2 7.38892C2 4.58892 4.2 2.38892 7 2.38892C9.8 2.38892 12 4.58892 12 7.38892C12 10.1889 9.8 12.3889 7 12.3889C4.2 12.3889 2 10.1889 2 7.38892Z" fill="#D9D9D9"/>
<path d="M15.7 14.6889L12.6 11.5889C13.5 10.3889 14 8.98892 14 7.38892C14 3.48892 10.9 0.388916 7 0.388916C3.1 0.388916 0 3.48892 0 7.38892C0 11.2889 3.1 14.3889 7 14.3889C8.6 14.3889 10 13.8889 11.2 12.9889L14.3 16.0889C14.5 16.2889 14.7 16.3889 15 16.3889C15.6 16.3889 16 15.9889 16 15.3889C16 15.1889 15.9 14.8889 15.7 14.6889ZM2 7.38892C2 4.58892 4.2 2.38892 7 2.38892C9.8 2.38892 12 4.58892 12 7.38892C12 10.1889 9.8 12.3889 7 12.3889C4.2 12.3889 2 10.1889 2 7.38892Z" fill="black" fill-opacity="0.2"/>
<path d="M12.2 11.2889L11.9398 11.6358L12.2464 11.9425L15.3464 15.0425C15.3896 15.0856 15.4307 15.1495 15.4608 15.2246C15.4917 15.3019 15.5 15.3637 15.5 15.3889C15.5 15.5753 15.4401 15.6918 15.3714 15.7604C15.3028 15.829 15.1864 15.8889 15 15.8889C14.9083 15.8889 14.8543 15.8742 14.8156 15.857C14.7747 15.8388 14.724 15.8058 14.6536 15.7354L11.5536 12.6354L11.2469 12.3287L10.9 12.5889C9.78352 13.4263 8.48809 13.8889 7 13.8889C3.37614 13.8889 0.5 11.0128 0.5 7.38892C0.5 3.76506 3.37614 0.888916 7 0.888916C10.6239 0.888916 13.5 3.76506 13.5 7.38892C13.5 8.877 13.0374 10.1724 12.2 11.2889ZM7 1.88892C3.92386 1.88892 1.5 4.31277 1.5 7.38892C1.5 10.4651 3.92386 12.8889 7 12.8889C10.0761 12.8889 12.5 10.4651 12.5 7.38892C12.5 4.31277 10.0761 1.88892 7 1.88892Z" stroke="black"/>
<path d="M12.2 11.2889L11.9398 11.6358L12.2464 11.9425L15.3464 15.0425C15.3896 15.0856 15.4307 15.1495 15.4608 15.2246C15.4917 15.3019 15.5 15.3637 15.5 15.3889C15.5 15.5753 15.4401 15.6918 15.3714 15.7604C15.3028 15.829 15.1864 15.8889 15 15.8889C14.9083 15.8889 14.8543 15.8742 14.8156 15.857C14.7747 15.8388 14.724 15.8058 14.6536 15.7354L11.5536 12.6354L11.2469 12.3287L10.9 12.5889C9.78352 13.4263 8.48809 13.8889 7 13.8889C3.37614 13.8889 0.5 11.0128 0.5 7.38892C0.5 3.76506 3.37614 0.888916 7 0.888916C10.6239 0.888916 13.5 3.76506 13.5 7.38892C13.5 8.877 13.0374 10.1724 12.2 11.2889ZM7 1.88892C3.92386 1.88892 1.5 4.31277 1.5 7.38892C1.5 10.4651 3.92386 12.8889 7 12.8889C10.0761 12.8889 12.5 10.4651 12.5 7.38892C12.5 4.31277 10.0761 1.88892 7 1.88892Z" stroke="black" stroke-opacity="0.2"/>
</g>
<defs>
<filter id="filter0_dd_21912_447" x="-4" y="0.388916" width="24" height="24" filterUnits="userSpaceOnUse" color-interpolation-filters="sRGB">
<feFlood flood-opacity="0" result="BackgroundImageFix"/>
<feColorMatrix in="SourceAlpha" type="matrix" values="0 0 0 0 0 0 0 0 0 0 0 0 0 0 0 0 0 0 127 0" result="hardAlpha"/>
<feOffset dy="4"/>
<feGaussianBlur stdDeviation="2"/>
<feComposite in2="hardAlpha" operator="out"/>
<feColorMatrix type="matrix" values="0 0 0 0 0 0 0 0 0 0 0 0 0 0 0 0 0 0 0.25 0"/>
<feBlend mode="normal" in2="BackgroundImageFix" result="effect1_dropShadow_21912_447"/>
<feColorMatrix in="SourceAlpha" type="matrix" values="0 0 0 0 0 0 0 0 0 0 0 0 0 0 0 0 0 0 127 0" result="hardAlpha"/>
<feOffset dy="4"/>
<feGaussianBlur stdDeviation="2"/>
<feComposite in2="hardAlpha" operator="out"/>
<feColorMatrix type="matrix" values="0 0 0 0 0 0 0 0 0 0 0 0 0 0 0 0 0 0 0.25 0"/>
<feBlend mode="normal" in2="effect1_dropShadow_21912_447" result="effect2_dropShadow_21912_447"/>
<feBlend mode="normal" in="SourceGraphic" in2="effect2_dropShadow_21912_447" result="shape"/>
</filter>
</defs>
</svg>
